HIERARCHY
ROOT hip
{
	OFFSET 0.000000 0.000000 0.000000 
	CHANNELS 6 Xposition Yposition Zposition Xrotation Zrotation Yrotation
	JOINT abdomen
	{
		OFFSET 0.000000 3.402643 0.000000 
		CHANNELS 3 Xrotation Zrotation Yrotation
		JOINT chest
		{
			OFFSET 0.000000 8.438565 -0.680529 
			CHANNELS 3 Xrotation Zrotation Yrotation
			JOINT neck
			{
				OFFSET 0.000000 10.207942 -0.272212 
				CHANNELS 3 Xrotation Zrotation Yrotation
				JOINT head
				{
					OFFSET 0.000000 3.130431 0.000000 
					CHANNELS 3 Xrotation Zrotation Yrotation
					End Site
					{
						OFFSET 0.000000 3.130435 0.000000 
					}
				}
			}
			JOINT lCollar
			{
				OFFSET 3.470700 6.669187 -0.816635 
				CHANNELS 3 Yrotation Zrotation Xrotation
				JOINT lShldr
				{
					OFFSET 3.198488 0.000000 0.000000 
					CHANNELS 3 Zrotation Yrotation Xrotation
					JOINT lForeArm
					{
						OFFSET 10.139888 0.000000 0.000000 
						CHANNELS 3 Yrotation Zrotation Xrotation
						JOINT lHand
						{
							OFFSET 8.370511 0.000000 0.000000 
							CHANNELS 3 Zrotation Yrotation Xrotation
							End Site
							{
								OFFSET 4.083176 0.000000 0.000000 
							}
						}
					}
				}
			}
			JOINT rCollar
			{
				OFFSET -3.470700 6.669187 -0.816635 
				CHANNELS 3 Yrotation Zrotation Xrotation
				JOINT rShldr
				{
					OFFSET -3.198488 0.000000 0.000000 
					CHANNELS 3 Zrotation Yrotation Xrotation
					JOINT rForeArm
					{
						OFFSET -10.139888 0.000000 0.000000 
						CHANNELS 3 Yrotation Zrotation Xrotation
						JOINT rHand
						{
							OFFSET -8.370511 0.000000 0.000000 
							CHANNELS 3 Zrotation Yrotation Xrotation
							End Site
							{
								OFFSET -4.083176 0.000000 0.000000 
							}
						}
					}
				}
			}
		}
	}
	JOINT lThigh
	{
		OFFSET 5.308129 -1.633274 1.361059 
		CHANNELS 3 Xrotation Zrotation Yrotation
		JOINT lShin
		{
			OFFSET -2.041588 -20.007561 0.000000 
			CHANNELS 3 Xrotation Zrotation Yrotation
			JOINT lFoot
			{
				OFFSET 0.000000 -19.190928 -1.224953 
				CHANNELS 3 Xrotation Yrotation Zrotation
				End Site
				{
					OFFSET 0.000000 -2.449906 4.627600 
				}
			}
		}
	}
	JOINT rThigh
	{
		OFFSET -5.308129 -1.633274 1.361059 
		CHANNELS 3 Xrotation Zrotation Yrotation
		JOINT rShin
		{
			OFFSET 2.041588 -20.007561 0.000000 
			CHANNELS 3 Xrotation Zrotation Yrotation
			JOINT rFoot
			{
				OFFSET 0.000000 -19.190928 -1.224953 
				CHANNELS 3 Xrotation Yrotation Zrotation
				End Site
				{
					OFFSET 0.000000 -2.449906 4.627600 
				}
			}
		}
	}
}
MOTION
Frames: 8
Frame Time: 0.033333
123.597504 39.697445 216.761124 11.962369 -3.945898 153.734970 30.381582 -15.058127 8.318435 -20.839844 0.000000 0.000000 -41.684353 4.161129 6.462488 8.603516 0.000000 0.000000 -4.754609 -0.109183 -0.002653 -3.262712 22.268272 -6.875243 -4.966238 -12.555649 29.312948 11.971507 -7.174053 3.523571 4.754609 0.109183 -0.002672 25.180252 21.749664 -20.437471 12.527671 1.074730 7.075937 -2.329995 3.396279 2.044950 -40.562771 28.355871 10.086809 74.830635 -7.339632 -0.824275 -21.308212 6.160990 -14.884462 22.605284 -24.989128 -13.717188 40.244297 -6.447372 6.449905 -50.027794 -11.132883 12.900927 
123.303680 40.263592 210.446381 11.374519 -3.121190 159.098862 33.224251 -13.179670 6.512391 -20.839844 0.000000 0.000000 -43.202999 2.932310 4.502810 8.603516 0.000000 0.000000 -4.754609 -0.109183 -0.002653 -4.375011 27.492178 -6.677079 -4.217599 -11.865732 26.634968 13.458926 -8.063077 1.655907 4.754609 0.109183 -0.002672 29.661942 -5.308510 -20.954998 44.455494 1.648017 3.288146 -2.792233 -10.366743 1.676162 -41.142170 25.956757 8.601655 71.489372 -6.265776 -0.333382 -23.403137 6.759048 -13.893370 24.578484 -15.761295 -9.147358 41.693726 -10.841759 -3.844839 -36.018349 -17.714470 7.452811 
123.042336 40.665363 203.807816 11.169356 -3.142577 164.164856 36.435173 -12.734314 4.703413 -20.839844 0.000000 0.000000 -44.637226 1.306642 2.461113 8.603516 0.000000 0.000000 -4.754609 -0.109183 -0.002653 -7.630795 33.330349 -6.112263 -3.350786 -9.115125 23.452324 14.210090 -8.756360 -1.611891 4.754609 0.109183 -0.002672 35.893017 -30.949089 -22.897751 63.731499 0.507847 2.039696 -4.659949 -20.278351 3.466477 -41.111092 23.709354 7.978733 68.114250 -6.138123 -0.101541 -25.800365 6.683163 -12.693420 24.787920 -8.795774 0.178512 44.934250 -9.333196 -3.493432 -2.498271 -17.894476 8.995047 
122.756508 40.986179 196.831467 10.835076 -2.973471 169.548111 39.473072 -11.534819 3.483864 -20.839844 0.000000 0.000000 -45.864937 -0.797754 0.442573 8.603516 0.000000 0.000000 -4.754609 -0.109183 -0.002653 -13.459254 40.807438 -5.342368 -5.275095 -3.707712 19.562178 13.395560 -8.427281 -6.812599 4.754609 0.109183 -0.002672 41.185989 -50.108635 -24.894478 60.612026 1.654120 5.598417 -7.949999 -20.587410 7.763968 -40.982182 23.160908 8.615648 64.707680 -7.270397 -0.660157 -28.689413 4.389784 -10.760595 26.219778 -4.950238 4.394954 48.827545 -3.707910 0.167720 14.328147 -10.918159 9.045280 
122.395218 41.138081 189.877106 -168.968628 -176.127350 -5.002649 43.136971 -10.963556 1.556583 -20.839844 0.000000 0.000000 -47.077496 -2.800951 -1.896373 8.603516 0.000000 0.000000 -4.754609 -0.109183 -0.002653 -21.570486 41.041584 -6.287348 1.517667 -0.502936 17.808731 12.375463 -7.814576 -9.415383 4.754609 0.109183 -0.002672 52.811111 -63.020832 -29.926231 50.361057 4.543477 9.895497 -8.670075 -21.304054 10.140172 -38.435345 20.681961 9.230617 62.655907 -8.353950 -1.325728 -30.619961 2.194338 -9.773314 24.346979 -4.744826 0.013757 60.568409 0.184542 -0.470281 13.544608 -6.557411 7.079032 
121.890518 41.180553 183.197586 -168.796478 -173.599838 -1.050818 46.801178 -11.872893 -1.923170 -20.839844 0.000000 0.000000 -48.896053 -3.736882 -4.229092 8.603516 0.000000 0.000000 -4.754609 -0.109183 -0.002653 -31.733889 39.311886 -7.844744 1.128528 -1.656298 18.260874 11.811532 -9.329857 -8.581943 4.754609 0.109183 -0.002672 78.227249 -69.424500 -43.815277 45.740726 8.088080 13.047596 -6.587640 -22.260134 8.264260 -32.673664 13.768282 7.434664 62.616852 -7.318682 -0.610226 -30.971142 3.766186 -9.178320 15.712119 -7.402728 -3.635338 75.084587 1.162892 -2.285221 6.665099 -9.190213 4.442642 
121.282883 41.018154 176.950790 -170.013458 -171.034088 0.068118 48.471916 -12.968436 -5.634950 -20.839844 0.000000 0.000000 -52.264061 -3.236716 -4.868561 8.603516 0.000000 0.000000 -4.754609 -0.109183 -0.002653 -42.534775 32.730476 -7.465554 0.890311 -3.581155 19.268108 12.185619 -12.584166 -9.237865 4.754609 0.109183 -0.002672 97.981445 -68.397705 -50.480038 43.115654 12.820851 15.792794 -6.217585 -19.453817 3.736921 -26.508307 6.726897 4.596731 63.492611 -5.873390 0.938011 -31.174984 6.664568 -7.573034 -1.767188 -10.297765 -3.121728 87.645821 -1.757793 -4.565925 -3.649632 -13.078593 -0.260808 
120.760193 40.368534 171.138260 -172.207108 -169.286972 0.466508 48.308632 -12.688661 -9.455785 -20.839844 0.000000 0.000000 -56.461346 -1.326319 -3.821509 8.603516 0.000000 0.000000 -4.754609 -0.109183 -0.002653 -52.922550 20.100260 -4.861577 0.169444 -4.591686 19.025486 14.329307 -14.595427 -10.520580 4.754609 0.109183 -0.002672 105.002792 -61.942139 -45.120598 42.396675 14.890164 15.284120 -6.632249 -17.899822 -0.472496 -21.373034 3.397762 3.463838 65.630714 -5.864065 1.626649 -34.683331 8.129306 -7.002915 -24.499525 -9.071404 1.256755 93.393784 -5.820581 -6.399864 -12.528669 -14.558318 -3.659997 
